<?xml version="1.0" encoding="UTF-8" standalone="no"?><svg xmlns="http://www.w3.org/2000/svg" xmlns:xlink="http://www.w3.org/1999/xlink" contentStyleType="text/css" height="722px" preserveAspectRatio="none" style="width:1454px;height:722px;background:#FFFFFF;" version="1.1" viewBox="0 0 1454 722" width="1454px" zoomAndPan="magnify"><defs/><g><!--MD5=[4bf8aff396996fef456cd268939daa24]
class Config--><g id="elem_Config"><rect codeLine="1" fill="#F1F1F1" height="106.0859" id="Config" rx="2.5" ry="2.5" style="stroke:#181818;stroke-width:0.5;" width="732" x="7" y="101.5"/><ellipse cx="345.75" cy="121.8105" fill="#ADD1B2" rx="11" ry="11" style="stroke:#181818;stroke-width:1.0;"/><path d="M348.2231,127.9536 Q347.6421,128.2524 347.0029,128.4019 Q346.3638,128.5513 345.6582,128.5513 Q343.1514,128.5513 341.8315,126.8994 Q340.5117,125.2476 340.5117,122.1265 Q340.5117,118.9971 341.8315,117.3452 Q343.1514,115.6934 345.6582,115.6934 Q346.3638,115.6934 347.0112,115.8428 Q347.6587,115.9922 348.2231,116.291 L348.2231,119.0137 Q347.5923,118.4326 346.9988,118.1628 Q346.4053,117.8931 345.7744,117.8931 Q344.4297,117.8931 343.7449,118.9597 Q343.0601,120.0264 343.0601,122.1265 Q343.0601,124.2183 343.7449,125.2849 Q344.4297,126.3516 345.7744,126.3516 Q346.4053,126.3516 346.9988,126.0818 Q347.5923,125.812 348.2231,125.231 Z " fill="#000000"/><text fill="#000000" font-family="sans-serif" font-size="12" font-style="italic" lengthAdjust="spacing" textLength="42" x="368.25" y="118.1016">«static»</text><text fill="#000000" font-family="sans-serif" font-size="14" lengthAdjust="spacing" textLength="46" x="366.25" y="134.168">Config</text><line style="stroke:#181818;stroke-width:0.5;" x1="8" x2="738" y1="142.1211" y2="142.1211"/><ellipse cx="18" cy="155.8652" fill="none" rx="3" ry="3" style="stroke:#038048;stroke-width:1.0;"/><text fill="#000000" font-family="sans-serif" font-size="14" lengthAdjust="spacing" text-decoration="underline" textLength="706" x="27" y="159.6563">DatabasePath : string «get» = "/Volumes/T7/VisualStudioProjects/SearchEngine-Baseline/database.db"</text><ellipse cx="18" cy="172.3535" fill="none" rx="3" ry="3" style="stroke:#038048;stroke-width:1.0;"/><text fill="#000000" font-family="sans-serif" font-size="14" lengthAdjust="spacing" text-decoration="underline" textLength="685" x="27" y="176.1445">DataSourcePath : string «get» = "/Volumes/T7/VisualStudioProjects/SearchEngine-Baseline/maildir"</text><ellipse cx="18" cy="188.8418" fill="none" rx="3" ry="3" style="stroke:#038048;stroke-width:1.0;"/><text fill="#000000" font-family="sans-serif" font-size="14" lengthAdjust="spacing" text-decoration="underline" textLength="277" x="27" y="192.6328">NumberOfFoldersToIndex : int «get» = 1</text><line style="stroke:#181818;stroke-width:0.5;" x1="8" x2="738" y1="199.5859" y2="199.5859"/></g><!--MD5=[335f4d9be48430461c68bf6d6fdba145]
class App--><g id="elem_App"><rect codeLine="1" fill="#F1F1F1" height="80.9766" id="App" rx="2.5" ry="2.5" style="stroke:#181818;stroke-width:0.5;" width="104" x="774" y="114"/><ellipse cx="808.8" cy="130" fill="#ADD1B2" rx="11" ry="11" style="stroke:#181818;stroke-width:1.0;"/><path d="M811.2731,136.1431 Q810.6921,136.4419 810.0529,136.5913 Q809.4138,136.7407 808.7082,136.7407 Q806.2014,136.7407 804.8815,135.0889 Q803.5617,133.437 803.5617,130.3159 Q803.5617,127.1865 804.8815,125.5347 Q806.2014,123.8828 808.7082,123.8828 Q809.4138,123.8828 810.0612,124.0322 Q810.7087,124.1816 811.2731,124.4805 L811.2731,127.2031 Q810.6423,126.6221 810.0488,126.3523 Q809.4553,126.0825 808.8244,126.0825 Q807.4797,126.0825 806.7949,127.1492 Q806.1101,128.2158 806.1101,130.3159 Q806.1101,132.4077 806.7949,133.4744 Q807.4797,134.541 808.8244,134.541 Q809.4553,134.541 810.0488,134.2712 Q810.6423,134.0015 811.2731,133.4204 Z " fill="#000000"/><text fill="#000000" font-family="sans-serif" font-size="14" lengthAdjust="spacing" textLength="28" x="827.2" y="135.291">App</text><line style="stroke:#181818;stroke-width:0.5;" x1="775" x2="877" y1="146" y2="146"/><line style="stroke:#181818;stroke-width:0.5;" x1="775" x2="877" y1="154" y2="154"/><ellipse cx="785" cy="167.7441" fill="#84BE84" rx="3" ry="3" style="stroke:#038048;stroke-width:1.0;"/><text fill="#000000" font-family="sans-serif" font-size="14" lengthAdjust="spacing" textLength="78" x="794" y="171.5352">Run() : void</text><ellipse cx="785" cy="184.2324" fill="#84BE84" rx="3" ry="3" style="stroke:#038048;stroke-width:1.0;"/><text fill="#000000" font-family="sans-serif" font-size="14" lengthAdjust="spacing" textLength="78" x="794" y="188.0234">Run() : void</text></g><!--MD5=[ed3afe56f065d25b4329669e73deaf58]
class Database--><g id="elem_Database"><rect codeLine="1" fill="#F1F1F1" height="295.3242" id="Database" rx="2.5" ry="2.5" style="stroke:#181818;stroke-width:0.5;" width="469" x="913.5" y="7"/><ellipse cx="1112.25" cy="23" fill="#ADD1B2" rx="11" ry="11" style="stroke:#181818;stroke-width:1.0;"/><path d="M1114.7231,29.1431 Q1114.1421,29.4419 1113.5029,29.5913 Q1112.8638,29.7407 1112.1582,29.7407 Q1109.6514,29.7407 1108.3315,28.0889 Q1107.0117,26.437 1107.0117,23.3159 Q1107.0117,20.1865 1108.3315,18.5347 Q1109.6514,16.8828 1112.1582,16.8828 Q1112.8638,16.8828 1113.5112,17.0322 Q1114.1587,17.1816 1114.7231,17.4805 L1114.7231,20.2031 Q1114.0923,19.6221 1113.4988,19.3523 Q1112.9053,19.0825 1112.2744,19.0825 Q1110.9297,19.0825 1110.2449,20.1492 Q1109.5601,21.2158 1109.5601,23.3159 Q1109.5601,25.4077 1110.2449,26.4744 Q1110.9297,27.541 1112.2744,27.541 Q1112.9053,27.541 1113.4988,27.2712 Q1114.0923,27.0015 1114.7231,26.4204 Z " fill="#000000"/><text fill="#000000" font-family="sans-serif" font-size="14" lengthAdjust="spacing" textLength="63" x="1132.75" y="28.291">Database</text><line style="stroke:#181818;stroke-width:0.5;" x1="914.5" x2="1381.5" y1="39" y2="39"/><rect fill="none" height="6" style="stroke:#C82930;stroke-width:1.0;" width="6" x="921.5" y="49.7441"/><text fill="#000000" font-family="sans-serif" font-size="14" lengthAdjust="spacing" textLength="212" x="933.5" y="56.5352">_connection : SqliteConnection</text><rect fill="none" height="6" style="stroke:#C82930;stroke-width:1.0;" width="6" x="921.5" y="66.2324"/><text fill="#000000" font-family="sans-serif" font-size="14" lengthAdjust="spacing" textLength="212" x="933.5" y="73.0234">_connection : SqliteConnection</text><line style="stroke:#181818;stroke-width:0.5;" x1="914.5" x2="1381.5" y1="79.9766" y2="79.9766"/><ellipse cx="924.5" cy="93.7207" fill="#84BE84" rx="3" ry="3" style="stroke:#038048;stroke-width:1.0;"/><text fill="#000000" font-family="sans-serif" font-size="14" lengthAdjust="spacing" textLength="73" x="933.5" y="97.5117">Database()</text><rect fill="#F24D5C" height="6" style="stroke:#C82930;stroke-width:1.0;" width="6" x="921.5" y="107.209"/><text fill="#000000" font-family="sans-serif" font-size="14" lengthAdjust="spacing" textLength="169" x="933.5" y="114">Execute(sql:string) : void</text><ellipse cx="924.5" cy="126.6973" fill="#84BE84" rx="3" ry="3" style="stroke:#038048;stroke-width:1.0;"/><text fill="#000000" font-family="sans-serif" font-size="14" lengthAdjust="spacing" textLength="443" x="933.5" y="130.4883">GetDocuments(wordIds:List&lt;int&gt;) : List&lt;KeyValuePair&lt;int, int&gt;&gt;</text><rect fill="#F24D5C" height="6" style="stroke:#C82930;stroke-width:1.0;" width="6" x="921.5" y="140.1855"/><text fill="#000000" font-family="sans-serif" font-size="14" lengthAdjust="spacing" textLength="196" x="933.5" y="146.9766">AsString(x:List&lt;int&gt;) : string</text><ellipse cx="924.5" cy="159.6738" fill="#84BE84" rx="3" ry="3" style="stroke:#038048;stroke-width:1.0;"/><text fill="#000000" font-family="sans-serif" font-size="14" lengthAdjust="spacing" textLength="263" x="933.5" y="163.4648">GetAllWords() : Dictionary&lt;string, int&gt;</text><ellipse cx="924.5" cy="176.1621" fill="#84BE84" rx="3" ry="3" style="stroke:#038048;stroke-width:1.0;"/><text fill="#000000" font-family="sans-serif" font-size="14" lengthAdjust="spacing" textLength="314" x="933.5" y="179.9531">GetDocDetails(docIds:List&lt;int&gt;) : List&lt;string&gt;</text><ellipse cx="924.5" cy="192.6504" fill="#84BE84" rx="3" ry="3" style="stroke:#038048;stroke-width:1.0;"/><text fill="#000000" font-family="sans-serif" font-size="14" lengthAdjust="spacing" textLength="73" x="933.5" y="196.4414">Database()</text><rect fill="#F24D5C" height="6" style="stroke:#C82930;stroke-width:1.0;" width="6" x="921.5" y="206.1387"/><text fill="#000000" font-family="sans-serif" font-size="14" lengthAdjust="spacing" textLength="169" x="933.5" y="212.9297">Execute(sql:string) : void</text><text fill="#000000" font-family="sans-serif" font-size="14" lengthAdjust="spacing" textLength="404" x="933.5" y="229.418">«internal» InsertAllWords(res:Dictionary&lt;string, int&gt;) : void</text><text fill="#000000" font-family="sans-serif" font-size="14" lengthAdjust="spacing" textLength="396" x="933.5" y="245.9063">«internal» InsertAllOcc(docId:int, wordIds:ISet&lt;int&gt;) : void</text><ellipse cx="924.5" cy="258.6035" fill="#84BE84" rx="3" ry="3" style="stroke:#038048;stroke-width:1.0;"/><text fill="#000000" font-family="sans-serif" font-size="14" lengthAdjust="spacing" textLength="248" x="933.5" y="262.3945">InsertWord(id:int, word:string) : void</text><ellipse cx="924.5" cy="275.0918" fill="#84BE84" rx="3" ry="3" style="stroke:#038048;stroke-width:1.0;"/><text fill="#000000" font-family="sans-serif" font-size="14" lengthAdjust="spacing" textLength="266" x="933.5" y="278.8828">InsertDocument(id:int, url:string) : void</text><ellipse cx="924.5" cy="291.5801" fill="#84BE84" rx="3" ry="3" style="stroke:#038048;stroke-width:1.0;"/><text fill="#000000" font-family="sans-serif" font-size="14" lengthAdjust="spacing" textLength="263" x="933.5" y="295.3711">GetAllWords() : Dictionary&lt;string, int&gt;</text></g><!--MD5=[175f95e045c1a44aed0b30df3abe0e5c]
class Program--><g id="elem_Program"><rect codeLine="1" fill="#F1F1F1" height="80.9766" id="Program" rx="2.5" ry="2.5" style="stroke:#181818;stroke-width:0.5;" width="180" x="283" y="411.5"/><ellipse cx="339.25" cy="427.5" fill="#ADD1B2" rx="11" ry="11" style="stroke:#181818;stroke-width:1.0;"/><path d="M341.7231,433.6431 Q341.1421,433.9419 340.5029,434.0913 Q339.8638,434.2407 339.1582,434.2407 Q336.6514,434.2407 335.3315,432.5889 Q334.0117,430.937 334.0117,427.8159 Q334.0117,424.6865 335.3315,423.0347 Q336.6514,421.3828 339.1582,421.3828 Q339.8638,421.3828 340.5112,421.5322 Q341.1587,421.6816 341.7231,421.9805 L341.7231,424.7031 Q341.0923,424.1221 340.4988,423.8523 Q339.9053,423.5825 339.2744,423.5825 Q337.9297,423.5825 337.2449,424.6492 Q336.5601,425.7158 336.5601,427.8159 Q336.5601,429.9077 337.2449,430.9744 Q337.9297,432.041 339.2744,432.041 Q339.9053,432.041 340.4988,431.7712 Q341.0923,431.5015 341.7231,430.9204 Z " fill="#000000"/><text fill="#000000" font-family="sans-serif" font-size="14" lengthAdjust="spacing" textLength="59" x="359.75" y="432.791">Program</text><line style="stroke:#181818;stroke-width:0.5;" x1="284" x2="462" y1="443.5" y2="443.5"/><line style="stroke:#181818;stroke-width:0.5;" x1="284" x2="462" y1="451.5" y2="451.5"/><text fill="#000000" font-family="sans-serif" font-size="14" lengthAdjust="spacing" text-decoration="underline" textLength="168" x="289" y="469.0352">Main(args:string[]) : void</text><text fill="#000000" font-family="sans-serif" font-size="14" lengthAdjust="spacing" text-decoration="underline" textLength="168" x="289" y="485.5234">Main(args:string[]) : void</text></g><!--MD5=[00042dfeb209c67f0d2d031f51fadff6]
class SearchLogic--><g id="elem_SearchLogic"><rect codeLine="1" fill="#F1F1F1" height="146.9297" id="SearchLogic" rx="2.5" ry="2.5" style="stroke:#181818;stroke-width:0.5;" width="469" x="498.5" y="378.5"/><ellipse cx="687.75" cy="394.5" fill="#ADD1B2" rx="11" ry="11" style="stroke:#181818;stroke-width:1.0;"/><path d="M690.2231,400.6431 Q689.6421,400.9419 689.0029,401.0913 Q688.3638,401.2407 687.6582,401.2407 Q685.1514,401.2407 683.8315,399.5889 Q682.5117,397.937 682.5117,394.8159 Q682.5117,391.6865 683.8315,390.0347 Q685.1514,388.3828 687.6582,388.3828 Q688.3638,388.3828 689.0112,388.5322 Q689.6587,388.6816 690.2231,388.9805 L690.2231,391.7031 Q689.5923,391.1221 688.9988,390.8523 Q688.4053,390.5825 687.7744,390.5825 Q686.4297,390.5825 685.7449,391.6492 Q685.0601,392.7158 685.0601,394.8159 Q685.0601,396.9077 685.7449,397.9744 Q686.4297,399.041 687.7744,399.041 Q688.4053,399.041 688.9988,398.7712 Q689.5923,398.5015 690.2231,397.9204 Z " fill="#000000"/><text fill="#000000" font-family="sans-serif" font-size="14" lengthAdjust="spacing" textLength="82" x="708.25" y="399.791">SearchLogic</text><line style="stroke:#181818;stroke-width:0.5;" x1="499.5" x2="966.5" y1="410.5" y2="410.5"/><text fill="#000000" font-family="sans-serif" font-size="14" lengthAdjust="spacing" textLength="151" x="504.5" y="428.0352">mDatabase : Database</text><text fill="#000000" font-family="sans-serif" font-size="14" lengthAdjust="spacing" textLength="225" x="504.5" y="444.5234">mWords : Dictionary&lt;string, int&gt;</text><line style="stroke:#181818;stroke-width:0.5;" x1="499.5" x2="966.5" y1="451.4766" y2="451.4766"/><ellipse cx="509.5" cy="465.2207" fill="#84BE84" rx="3" ry="3" style="stroke:#038048;stroke-width:1.0;"/><text fill="#000000" font-family="sans-serif" font-size="14" lengthAdjust="spacing" textLength="221" x="518.5" y="469.0117">SearchLogic(database:Database)</text><ellipse cx="509.5" cy="481.709" fill="#84BE84" rx="3" ry="3" style="stroke:#038048;stroke-width:1.0;"/><text fill="#000000" font-family="sans-serif" font-size="14" lengthAdjust="spacing" textLength="171" x="518.5" y="485.5">GetIdOf(word:string) : int</text><ellipse cx="509.5" cy="498.1973" fill="#84BE84" rx="3" ry="3" style="stroke:#038048;stroke-width:1.0;"/><text fill="#000000" font-family="sans-serif" font-size="14" lengthAdjust="spacing" textLength="443" x="518.5" y="501.9883">GetDocuments(wordIds:List&lt;int&gt;) : List&lt;KeyValuePair&lt;int, int&gt;&gt;</text><ellipse cx="509.5" cy="514.6855" fill="#84BE84" rx="3" ry="3" style="stroke:#038048;stroke-width:1.0;"/><text fill="#000000" font-family="sans-serif" font-size="14" lengthAdjust="spacing" textLength="358" x="518.5" y="518.4766">GetDocumentDetails(docIds:List&lt;int&gt;) : List&lt;string&gt;</text></g><!--MD5=[cc10e3762d31933ec3f062b0abc50bc3]
class Crawler--><g id="elem_Crawler"><rect codeLine="1" fill="#F1F1F1" height="179.9063" id="Crawler" rx="2.5" ry="2.5" style="stroke:#181818;stroke-width:0.5;" width="444" x="1003" y="362"/><ellipse cx="1194.25" cy="378" fill="#ADD1B2" rx="11" ry="11" style="stroke:#181818;stroke-width:1.0;"/><path d="M1196.7231,384.1431 Q1196.1421,384.4419 1195.5029,384.5913 Q1194.8638,384.7407 1194.1582,384.7407 Q1191.6514,384.7407 1190.3315,383.0889 Q1189.0117,381.437 1189.0117,378.3159 Q1189.0117,375.1865 1190.3315,373.5347 Q1191.6514,371.8828 1194.1582,371.8828 Q1194.8638,371.8828 1195.5112,372.0322 Q1196.1587,372.1816 1196.7231,372.4805 L1196.7231,375.2031 Q1196.0923,374.6221 1195.4988,374.3523 Q1194.9053,374.0825 1194.2744,374.0825 Q1192.9297,374.0825 1192.2449,375.1492 Q1191.5601,376.2158 1191.5601,378.3159 Q1191.5601,380.4077 1192.2449,381.4744 Q1192.9297,382.541 1194.2744,382.541 Q1194.9053,382.541 1195.4988,382.2712 Q1196.0923,382.0015 1196.7231,381.4204 Z " fill="#000000"/><text fill="#000000" font-family="sans-serif" font-size="14" lengthAdjust="spacing" textLength="53" x="1214.75" y="383.291">Crawler</text><line style="stroke:#181818;stroke-width:0.5;" x1="1004" x2="1446" y1="394" y2="394"/><rect fill="none" height="6" style="stroke:#C82930;stroke-width:1.0;" width="6" x="1011" y="404.7441"/><text fill="#000000" font-family="sans-serif" font-size="14" lengthAdjust="spacing" textLength="154" x="1023" y="411.5352">«readonly» sep : char[]</text><rect fill="none" height="6" style="stroke:#C82930;stroke-width:1.0;" width="6" x="1011" y="421.2324"/><text fill="#000000" font-family="sans-serif" font-size="14" lengthAdjust="spacing" textLength="211" x="1023" y="428.0234">words : Dictionary&lt;string, int&gt;</text><rect fill="none" height="6" style="stroke:#C82930;stroke-width:1.0;" width="6" x="1011" y="437.7207"/><text fill="#000000" font-family="sans-serif" font-size="14" lengthAdjust="spacing" textLength="245" x="1023" y="444.5117">documents : Dictionary&lt;string, int&gt;</text><text fill="#000000" font-family="sans-serif" font-size="14" lengthAdjust="spacing" textLength="150" x="1023" y="461">mdatabase : Database</text><line style="stroke:#181818;stroke-width:0.5;" x1="1004" x2="1446" y1="467.9531" y2="467.9531"/><ellipse cx="1014" cy="481.6973" fill="#84BE84" rx="3" ry="3" style="stroke:#038048;stroke-width:1.0;"/><text fill="#000000" font-family="sans-serif" font-size="14" lengthAdjust="spacing" textLength="148" x="1023" y="485.4883">Crawler(db:Database)</text><rect fill="#F24D5C" height="6" style="stroke:#C82930;stroke-width:1.0;" width="6" x="1011" y="495.1855"/><text fill="#000000" font-family="sans-serif" font-size="14" lengthAdjust="spacing" textLength="297" x="1023" y="501.9766">ExtractWordsInFile(f:FileInfo) : ISet&lt;string&gt;</text><rect fill="#F24D5C" height="6" style="stroke:#C82930;stroke-width:1.0;" width="6" x="1011" y="511.6738"/><text fill="#000000" font-family="sans-serif" font-size="14" lengthAdjust="spacing" textLength="349" x="1023" y="518.4648">GetWordIdFromWords(src:ISet&lt;string&gt;) : ISet&lt;int&gt;</text><ellipse cx="1014" cy="531.1621" fill="#84BE84" rx="3" ry="3" style="stroke:#038048;stroke-width:1.0;"/><text fill="#000000" font-family="sans-serif" font-size="14" lengthAdjust="spacing" textLength="418" x="1023" y="534.9531">IndexFilesIn(dir:DirectoryInfo, extensions:List&lt;string&gt;) : void</text></g><!--MD5=[26e3a289831622680c44e482c72da6b1]
class Renamer--><g id="elem_Renamer"><rect codeLine="1" fill="#F1F1F1" height="113.9531" id="Renamer" rx="2.5" ry="2.5" style="stroke:#181818;stroke-width:0.5;" width="228" x="259" y="602"/><ellipse cx="338.25" cy="618" fill="#ADD1B2" rx="11" ry="11" style="stroke:#181818;stroke-width:1.0;"/><path d="M340.7231,624.1431 Q340.1421,624.4419 339.5029,624.5913 Q338.8638,624.7407 338.1582,624.7407 Q335.6514,624.7407 334.3315,623.0889 Q333.0117,621.437 333.0117,618.3159 Q333.0117,615.1865 334.3315,613.5347 Q335.6514,611.8828 338.1582,611.8828 Q338.8638,611.8828 339.5112,612.0322 Q340.1587,612.1816 340.7231,612.4805 L340.7231,615.2031 Q340.0923,614.6221 339.4988,614.3523 Q338.9053,614.0825 338.2744,614.0825 Q336.9297,614.0825 336.2449,615.1492 Q335.5601,616.2158 335.5601,618.3159 Q335.5601,620.4077 336.2449,621.4744 Q336.9297,622.541 338.2744,622.541 Q338.9053,622.541 339.4988,622.2712 Q340.0923,622.0015 340.7231,621.4204 Z " fill="#000000"/><text fill="#000000" font-family="sans-serif" font-size="14" lengthAdjust="spacing" textLength="61" x="358.75" y="623.291">Renamer</text><line style="stroke:#181818;stroke-width:0.5;" x1="260" x2="486" y1="634" y2="634"/><line style="stroke:#181818;stroke-width:0.5;" x1="260" x2="486" y1="642" y2="642"/><ellipse cx="270" cy="655.7441" fill="#84BE84" rx="3" ry="3" style="stroke:#038048;stroke-width:1.0;"/><text fill="#000000" font-family="sans-serif" font-size="14" lengthAdjust="spacing" textLength="71" x="279" y="659.5352">Renamer()</text><ellipse cx="270" cy="672.2324" fill="#84BE84" rx="3" ry="3" style="stroke:#038048;stroke-width:1.0;"/><text fill="#000000" font-family="sans-serif" font-size="14" lengthAdjust="spacing" textLength="78" x="279" y="676.0234">Run() : void</text><text fill="#000000" font-family="sans-serif" font-size="14" lengthAdjust="spacing" textLength="190" x="279" y="692.5117">RenameFile(f:FileInfo) : void</text><ellipse cx="270" cy="705.209" fill="#84BE84" rx="3" ry="3" style="stroke:#038048;stroke-width:1.0;"/><text fill="#000000" font-family="sans-serif" font-size="14" lengthAdjust="spacing" textLength="202" x="279" y="709">Crawl(dir:DirectoryInfo) : void</text></g><!--MD5=[907251b3a2939dd278b8935b7ccda149]
@startuml
!include ./Common/Config.puml
!include ./ConsoleSearch/App.puml
!include ./ConsoleSearch/Database.puml
!include ./ConsoleSearch/Program.puml
!include ./ConsoleSearch/SearchLogic.puml
!include ./Indexer/App.puml
!include ./Indexer/Crawler.puml
!include ./Indexer/Database.puml
!include ./Indexer/Program.puml
!include ./Indexer/Renamer.puml
!include ./Common/obj/Debug/net5.0/.NETCoreApp,Version=v5.0.AssemblyAttributes.puml
!include ./Common/obj/Debug/net5.0/Common.AssemblyInfo.puml
!include ./Common/obj/Debug/net5.0/Common.GlobalUsings.g.puml
!include ./ConsoleSearch/obj/Debug/net5.0/.NETCoreApp,Version=v5.0.AssemblyAttributes.puml
!include ./ConsoleSearch/obj/Debug/net5.0/ConsoleSearch.AssemblyInfo.puml
!include ./Indexer/obj/Debug/net5.0/.NETCoreApp,Version=v5.0.AssemblyAttributes.puml
!include ./Indexer/obj/Debug/net5.0/Indexer.AssemblyInfo.puml
@enduml

@startuml
class Config <<static>> {
    + {static} DatabasePath : string <<get>> = "/Volumes/T7/VisualStudioProjects/SearchEngine-Baseline/database.db"
    + {static} DataSourcePath : string <<get>> = "/Volumes/T7/VisualStudioProjects/SearchEngine-Baseline/maildir"
    + {static} NumberOfFoldersToIndex : int <<get>> = 1
}
class App {
    + Run() : void
}
class Database {
    - _connection : SqliteConnection
    + Database()
    - Execute(sql:string) : void
    + GetDocuments(wordIds:List<int>) : List<KeyValuePair<int, int>>
    - AsString(x:List<int>) : string
    + GetAllWords() : Dictionary<string, int>
    + GetDocDetails(docIds:List<int>) : List<string>
}
class Program {
    {static} Main(args:string[]) : void
}
class SearchLogic {
    mDatabase : Database
    mWords : Dictionary<string, int>
    + SearchLogic(database:Database)
    + GetIdOf(word:string) : int
    + GetDocuments(wordIds:List<int>) : List<KeyValuePair<int, int>>
    + GetDocumentDetails(docIds:List<int>) : List<string>
}
class App {
    + Run() : void
}
class Crawler {
    - <<readonly>> sep : char[]
    - words : Dictionary<string, int>
    - documents : Dictionary<string, int>
    mdatabase : Database
    + Crawler(db:Database)
    - ExtractWordsInFile(f:FileInfo) : ISet<string>
    - GetWordIdFromWords(src:ISet<string>) : ISet<int>
    + IndexFilesIn(dir:DirectoryInfo, extensions:List<string>) : void
}
class Database {
    - _connection : SqliteConnection
    + Database()
    - Execute(sql:string) : void
    <<internal>> InsertAllWords(res:Dictionary<string, int>) : void
    <<internal>> InsertAllOcc(docId:int, wordIds:ISet<int>) : void
    + InsertWord(id:int, word:string) : void
    + InsertDocument(id:int, url:string) : void
    + GetAllWords() : Dictionary<string, int>
}
class Program {
    {static} Main(args:string[]) : void
}
class Renamer {
    + Renamer()
    + Run() : void
    RenameFile(f:FileInfo) : void
    + Crawl(dir:DirectoryInfo) : void
}
@enduml

PlantUML version 1.2022.7(Mon Aug 22 19:01:30 CEST 2022)
(GPL source distribution)
Java Runtime: OpenJDK Runtime Environment
JVM: OpenJDK 64-Bit Server VM
Default Encoding: UTF-8
Language: en
Country: DK
--></g></svg>